<mxfile host="app.diagrams.net" modified="2023-11-02T08:38:33.524Z" agent="Mozilla/5.0 (Windows NT 10.0; Win64; x64) AppleWebKit/537.36 (KHTML, like Gecko) Chrome/118.0.0.0 Safari/537.36" etag="Qdgk6M1XPPnNStntoCXE" version="22.0.8" type="device">
  <diagram name="Page-1" id="Vu23VNEdUQRpcbm-g7k7">
    <mxGraphModel dx="1434" dy="796" grid="1" gridSize="10" guides="1" tooltips="1" connect="1" arrows="1" fold="1" page="1" pageScale="1" pageWidth="827" pageHeight="1169" math="0" shadow="0">
      <root>
        <mxCell id="0" />
        <mxCell id="1" parent="0" />
        <UserObject label="Actor" id="DHGYQqxSiyU091aZgHyU-5">
          <mxCell style="shape=umlActor;verticalLabelPosition=bottom;verticalAlign=top;html=1;outlineConnect=0;overflow=block;noLabel=1;" vertex="1" parent="1">
            <mxGeometry x="30" y="450" width="30" height="60" as="geometry" />
          </mxCell>
        </UserObject>
        <mxCell id="DHGYQqxSiyU091aZgHyU-6" value="Utilisateur" style="text;html=1;strokeColor=none;fillColor=none;align=center;verticalAlign=middle;whiteSpace=wrap;rounded=0;" vertex="1" parent="1">
          <mxGeometry x="15" y="510" width="60" height="30" as="geometry" />
        </mxCell>
        <mxCell id="DHGYQqxSiyU091aZgHyU-7" value="" style="endArrow=none;html=1;rounded=0;" edge="1" parent="1" target="DHGYQqxSiyU091aZgHyU-8">
          <mxGeometry width="50" height="50" relative="1" as="geometry">
            <mxPoint x="60" y="470" as="sourcePoint" />
            <mxPoint x="140" y="300" as="targetPoint" />
          </mxGeometry>
        </mxCell>
        <mxCell id="DHGYQqxSiyU091aZgHyU-8" value="Regarder la liste des recettes" style="rounded=1;whiteSpace=wrap;html=1;" vertex="1" parent="1">
          <mxGeometry x="40" y="220" width="120" height="60" as="geometry" />
        </mxCell>
        <mxCell id="DHGYQqxSiyU091aZgHyU-9" value="" style="endArrow=none;html=1;rounded=0;" edge="1" parent="1" target="DHGYQqxSiyU091aZgHyU-10">
          <mxGeometry width="50" height="50" relative="1" as="geometry">
            <mxPoint x="60" y="470" as="sourcePoint" />
            <mxPoint x="180" y="470" as="targetPoint" />
          </mxGeometry>
        </mxCell>
        <mxCell id="DHGYQqxSiyU091aZgHyU-10" value="Regarder les dÃ©tails d&#39;une recette" style="rounded=1;whiteSpace=wrap;html=1;" vertex="1" parent="1">
          <mxGeometry x="190" y="290" width="120" height="60" as="geometry" />
        </mxCell>
        <mxCell id="DHGYQqxSiyU091aZgHyU-12" value="" style="endArrow=none;html=1;rounded=0;" edge="1" parent="1" target="DHGYQqxSiyU091aZgHyU-13">
          <mxGeometry width="50" height="50" relative="1" as="geometry">
            <mxPoint x="60" y="470" as="sourcePoint" />
            <mxPoint x="210" y="470" as="targetPoint" />
          </mxGeometry>
        </mxCell>
        <mxCell id="DHGYQqxSiyU091aZgHyU-13" value="Ajouter une recette" style="rounded=1;whiteSpace=wrap;html=1;" vertex="1" parent="1">
          <mxGeometry x="220" y="370" width="120" height="60" as="geometry" />
        </mxCell>
        <mxCell id="DHGYQqxSiyU091aZgHyU-14" value="" style="endArrow=none;html=1;rounded=0;exitX=1;exitY=0.3333333333333333;exitDx=0;exitDy=0;exitPerimeter=0;" edge="1" parent="1" source="DHGYQqxSiyU091aZgHyU-5" target="DHGYQqxSiyU091aZgHyU-15">
          <mxGeometry width="50" height="50" relative="1" as="geometry">
            <mxPoint x="390" y="430" as="sourcePoint" />
            <mxPoint x="210" y="520" as="targetPoint" />
          </mxGeometry>
        </mxCell>
        <mxCell id="DHGYQqxSiyU091aZgHyU-15" value="Modifier une recette" style="rounded=1;whiteSpace=wrap;html=1;" vertex="1" parent="1">
          <mxGeometry x="220" y="450" width="120" height="60" as="geometry" />
        </mxCell>
        <mxCell id="DHGYQqxSiyU091aZgHyU-16" value="" style="endArrow=none;html=1;rounded=0;exitX=1;exitY=0.3333333333333333;exitDx=0;exitDy=0;exitPerimeter=0;" edge="1" parent="1" source="DHGYQqxSiyU091aZgHyU-5" target="DHGYQqxSiyU091aZgHyU-17">
          <mxGeometry width="50" height="50" relative="1" as="geometry">
            <mxPoint x="390" y="430" as="sourcePoint" />
            <mxPoint x="220" y="550" as="targetPoint" />
          </mxGeometry>
        </mxCell>
        <mxCell id="DHGYQqxSiyU091aZgHyU-17" value="Supprimer une recette" style="rounded=1;whiteSpace=wrap;html=1;" vertex="1" parent="1">
          <mxGeometry x="220" y="530" width="120" height="60" as="geometry" />
        </mxCell>
        <mxCell id="DHGYQqxSiyU091aZgHyU-18" value="Includes" style="html=1;verticalAlign=bottom;endArrow=open;dashed=1;endSize=8;curved=0;rounded=0;exitX=1;exitY=0.5;exitDx=0;exitDy=0;entryX=0;entryY=0.5;entryDx=0;entryDy=0;" edge="1" parent="1" source="DHGYQqxSiyU091aZgHyU-13" target="DHGYQqxSiyU091aZgHyU-21">
          <mxGeometry relative="1" as="geometry">
            <mxPoint x="450" y="410" as="sourcePoint" />
            <mxPoint x="480" y="450" as="targetPoint" />
          </mxGeometry>
        </mxCell>
        <mxCell id="DHGYQqxSiyU091aZgHyU-19" value="Includes" style="html=1;verticalAlign=bottom;endArrow=open;dashed=1;endSize=8;curved=0;rounded=0;exitX=1;exitY=0.5;exitDx=0;exitDy=0;entryX=0;entryY=0.75;entryDx=0;entryDy=0;" edge="1" parent="1" target="DHGYQqxSiyU091aZgHyU-21">
          <mxGeometry relative="1" as="geometry">
            <mxPoint x="340" y="480" as="sourcePoint" />
            <mxPoint x="480" y="450" as="targetPoint" />
          </mxGeometry>
        </mxCell>
        <mxCell id="DHGYQqxSiyU091aZgHyU-20" value="Includes" style="html=1;verticalAlign=bottom;endArrow=open;dashed=1;endSize=8;curved=0;rounded=0;exitX=1;exitY=0.5;exitDx=0;exitDy=0;" edge="1" parent="1" source="DHGYQqxSiyU091aZgHyU-17" target="DHGYQqxSiyU091aZgHyU-21">
          <mxGeometry relative="1" as="geometry">
            <mxPoint x="380" y="490" as="sourcePoint" />
            <mxPoint x="480" y="450" as="targetPoint" />
          </mxGeometry>
        </mxCell>
        <mxCell id="DHGYQqxSiyU091aZgHyU-21" value="S&#39;authentifier" style="rounded=1;whiteSpace=wrap;html=1;" vertex="1" parent="1">
          <mxGeometry x="430" y="420" width="120" height="60" as="geometry" />
        </mxCell>
      </root>
    </mxGraphModel>
  </diagram>
</mxfile>
